<svg xmlns="http://www.w3.org/2000/svg" xmlns:xlink="http://www.w3.org/1999/xlink" width="1212" height="415" version="1.1" viewBox="0 0 1212 415"><g id="Page-1" fill="none" fill-rule="evenodd" stroke="none" stroke-width="1" color="#fff"><g id="CarbonVue2" transform="translate(-24.000000, -67.000000)"><text id="2" fill="currentColor" font-family="IBMPlexSans, IBM Plex Sans" font-size="200" font-weight="700" letter-spacing="56.3"><tspan x="1129" y="458">2</tspan></text><text id="/" fill="currentColor" font-family="IBMPlexSans, IBM Plex Sans" font-size="390" font-weight="normal" letter-spacing="56.313"><tspan x="650" y="400">/</tspan></text><text id="@" fill="currentColor" font-family="IBMPlexSans, IBM Plex Sans" font-size="384" font-weight="normal" letter-spacing="56.3"><tspan x="0" y="398">@</tspan></text><polyline id="Line" stroke="currentColor" stroke-linecap="square" stroke-width="25" points="475.853 117.422 536.832 82.193 667.51 157.516 667.51 230.613"/><text id="⬡" fill="currentColor" font-family="STIXGeneral-Regular, STIXGeneral" font-size="384" font-weight="normal" letter-spacing="56.3"><tspan x="313" y="413">⬡</tspan></text><g id="white-on-dark-logo" fill="currentColor" transform="translate(797.000000, 111.000000)"><polygon id="Path" points="199 206.396 85.503 10.317 79.531 0 0 0 5.971 10.321 199 344 398 0 318.408 0"/><polygon id="Path" points="198.995 58.429 164.917 0 153.057 0 0 0 5.96 10.262 159.035 10.262 198.995 79 238.971 10.262 392.03 10.262 398 0 244.932 0 233.08 0"/></g></g></g></svg>